<?xml version="1.0" encoding="UTF-8" standalone="no"?>
<svg
   version="1.1"
   id="Silver_Oracle_RAC_Active-Active_Cluster"
   width="901.71155"
   height="430.30542"
   x="0px"
   y="0px"
   viewBox="0 0 450.85577 215.05917"
   xml:space="preserve"
   xmlns:xlink="http://www.w3.org/1999/xlink"
   xmlns="http://www.w3.org/2000/svg"
   xmlns:svg="http://www.w3.org/2000/svg"
   xmlns:rdf="http://www.w3.org/1999/02/22-rdf-syntax-ns#"
   xmlns:cc="http://creativecommons.org/ns#"
   xmlns:dc="http://purl.org/dc/elements/1.1/">
	 <defs
   id="defs4655">
    <marker
   orient="auto"
   refY="0"
   refX="0"
   id="Arrow2Lstart"
   style="overflow:visible">
      <path
   id="path4591"
   style="fill:#000000;fill-opacity:1;fill-rule:evenodd;stroke:#000000;stroke-width:0.5;stroke-linejoin:round;stroke-opacity:1"
   d="M 8.7185878,4.0337352 -2.2072895,0.01601326 8.7185884,-4.0017078 c -1.7454984,2.3720609 -1.7354408,5.6174519 -6e-7,8.035443 z"
   transform="matrix(1.1,0,0,1.1,1.1,0)" />
    </marker>
    <marker
   orient="auto"
   refY="0"
   refX="0"
   id="Arrow2Lend"
   style="overflow:visible">
      <path
   id="path4594"
   style="fill:#000000;fill-opacity:1;fill-rule:evenodd;stroke:#000000;stroke-width:0.5;stroke-linejoin:round;stroke-opacity:1"
   d="M 8.7185878,4.0337352 -2.2072895,0.01601326 8.7185884,-4.0017078 c -1.7454984,2.3720609 -1.7354408,5.6174519 -6e-7,8.035443 z"
   transform="matrix(-1.1,0,0,-1.1,-1.1,0)" />
    </marker>
  















</defs>
<metadata
   id="metadata4658">
    <rdf:RDF>
      <cc:Work
   rdf:about="">
        <dc:format>image/svg+xml</dc:format>
        <dc:type
   rdf:resource="http://purl.org/dc/dcmitype/StillImage" />
        
      </cc:Work>
    </rdf:RDF>
  </metadata>
<style
   id="style4512">@import url(../css/bookslides.css);</style>
<script
   xlink:href="../js/bookslides.js"
   id="script4514" />
<style
   type="text/css"
   id="style10">
	.st0{fill:#D4D6D7;}
	.st1{font-family:'Helvetica';}
	.st2{font-size:8px;}
	.st3{fill:#663300;}
	.st4{fill:#FFFFFF;}
</style>
<a
   transform="translate(0,107.7895)"
   xlink:href=""
   tabindex="0"
   class="clickable"
   id="a_Oracle_RAC"
   onclick="getdoc('http://www.oracle.com/pls/topic/lookup?ctx=db19&amp;id=GUID-D409B493-DBE3-4D1C-B235-74CF349C8688');"
   role="link">
	 <title
   id="title12">Oracle RAC</title>
<g
   id="Oracle_RAC">
	<path
   class="st0"
   d="M 105.8,31 H 2 C 0.9,31 0,30.1 0,29 V 2 C 0,0.9 0.9,0 2,0 h 103.8 c 1.1,0 2,0.9 2,2 v 27 c 0,1.1 -0.9,2 -2,2 z"
   id="path14"
   style="fill:#d4d6d7" />
	<text
   transform="translate(32.541,18.0184)"
   class="st1 st2"
   id="text16"
   style="font-size:8px;font-family:Helvetica">Oracle RAC</text>








</g>
</a>

<a
   transform="translate(0,94.705883)"
   xlink:href=""
   tabindex="0"
   class="clickable"
   id="a_Recovery_Manager"
   onclick="getdoc('http://www.oracle.com/pls/topic/lookup?ctx=db19&amp;id=GUID-D4F06471-A740-4776-AC68-F86D21540498');"
   role="link">
	 <title
   id="title28">Recovery Manager</title>
<g
   id="Recovery_Manager">
	<path
   class="st3"
   d="M 105.8,81.4 H 2 c -1.1,0 -2,-0.9 -2,-2 v -27 c 0,-1.1 0.9,-2 2,-2 h 103.8 c 1.1,0 2,0.9 2,2 v 27 c 0,1.1 -0.9,2 -2,2 z"
   id="path30"
   style="fill:#663300" />
	<text
   transform="translate(20.0895,68.4314)"
   class="st4 st1 st2"
   id="text32"
   style="font-size:8px;font-family:Helvetica;fill:#ffffff">Recovery Manager</text>








</g>
</a>

<a
   transform="translate(112.36831,33.605883)"
   xlink:href=""
   tabindex="0"
   class="clickable"
   id="a_Automatic_Storage_Management"
   onclick="getdoc('http://www.oracle.com/pls/topic/lookup?ctx=db19&amp;id=GUID-CB09AD76-9640-4A2E-BB7E-A6C67681E7FB');"
   role="link">
	 <title
   id="title44">Automatic Storage Management</title>
<g
   id="Automatic_Storage_Management">
	<g
   id="g48">
		<path
   class="st3"
   d="M 105.8,142.5 H 2 c -1.1,0 -2,-0.9 -2,-2 v -27 c 0,-1.1 0.9,-2 2,-2 h 103.8 c 1.1,0 2,0.9 2,2 v 27 c 0,1.1 -0.9,2 -2,2 z"
   id="path46"
   style="fill:#663300" />
	</g>
	<text
   transform="translate(20.9729,124.7949)"
   id="text54"><tspan
     x="0"
     y="0"
     class="st4 st1 st2"
     id="tspan50"
     style="font-size:8px;font-family:Helvetica;fill:#ffffff">Automatic Storage</tspan><tspan
     x="9.6000004"
     y="9.6000004"
     class="st4 st1 st2"
     id="tspan52"
     style="font-size:8px;font-family:Helvetica;fill:#ffffff">Management</tspan></text>








</g>
</a>
<a
   transform="translate(-6.13169,68.657404)"
   xlink:href=""
   tabindex="0"
   class="clickable"
   id="a_Corruption_Protection"
   onclick="getdoc('http://www.oracle.com/pls/topic/lookup?ctx=db19&amp;id=GUID-B7952FBE-0EBF-483C-AF33-EF510BB09D2D');"
   role="link">
	 <title
   id="title58">Corruption Protection</title>
<g
   id="Corruption_Protection">
	<path
   class="st3"
   d="M 223.8,142.5 H 120.5 c -1.1,0 -2,-0.9 -2,-2 v -27 c 0,-1.1 0.9,-2 2,-2 h 103.3 c 1.1,0 2,0.9 2,2 v 27 c 0,1.1 -0.9,2 -2,2 z"
   id="path60"
   style="fill:#663300" />
	<text
   transform="translate(134.3354,129.5948)"
   class="st4 st1 st2"
   id="text62"
   style="font-size:8px;font-family:Helvetica;fill:#ffffff">Corruption Protection</text>








</g>
</a>
<a
   transform="translate(238.13746,-46.14525)"
   xlink:href=""
   tabindex="0"
   class="clickable"
   id="a_Oracle_Flashback_Technology"
   onclick="getdoc('http://www.oracle.com/pls/topic/lookup?ctx=db19&amp;id=GUID-5E4FDB4B-465B-441E-8AE1-6BB0CF274A28');"
   role="link">
	 <title
   id="title66">Oracle Flashback Technology</title>
<g
   id="Oracle_Flashback_Technology"
   transform="translate(-238.13746,71.102654)">
	<path
   class="st3"
   d="M 105.8,186.2 H 2 c -1.1,0 -2,-0.9 -2,-2 v -27 c 0,-1.1 0.9,-2 2,-2 h 103.8 c 1.1,0 2,0.9 2,2 v 27 c 0,1.1 -0.9,2 -2,2 z"
   id="path68"
   style="fill:#663300" />
	<text
   transform="translate(22.7517,168.4576)"
   id="text74"><tspan
     x="0"
     y="0"
     class="st4 st1 st2"
     id="tspan70"
     style="font-size:8px;font-family:Helvetica;fill:#ffffff">Oracle Flashback</tspan><tspan
     x="10.4"
     y="9.6000004"
     class="st4 st1 st2"
     id="tspan72"
     style="font-size:8px;font-family:Helvetica;fill:#ffffff">Technology</tspan></text>








</g>
</a>






<path
   id="path123"
   d="M 225.48362,-0.04355198 225.73709,215.10858"
   style="fill:none;stroke:#000000;stroke-width:0.5;stroke-linecap:butt;stroke-linejoin:miter;stroke-miterlimit:4;stroke-dasharray:2.00000001, 2.00000001;stroke-dashoffset:0;stroke-opacity:1" /><a
   transform="translate(56.46463,37.056055)"
   role="link"
   onclick="getdoc('http://www.oracle.com/pls/topic/lookup?ctx=db19&amp;id=GUID-FFD1679E-2C5D-41C6-ADA5-D66D4A24FBB0');"
   id="a_Oracle_Active_Data_Guard"
   class="clickable"
   tabindex="0"
   xlink:href=""><title
     id="title12-5">Oracle Active Data Guard</title><g
     id="Oracle_Active_Data_Guard"><path
   style="fill:#e29417"
   id="path14-4"
   d="M 105.8,31 H 2 C 0.9,31 0,30.1 0,29 V 2 C 0,0.9 0.9,0 2,0 h 103.8 c 1.1,0 2,0.9 2,2 v 27 c 0,1.1 -0.9,2 -2,2 z"
   class="st0" /><text
   style="font-size:8px;font-family:Helvetica;fill:#ffffff"
   id="text16-1"
   class="st1 st2 st3"
   transform="translate(8.3047,18.0183)">Oracle Active Data Guard</text>





</g></a><a
   transform="translate(57.380165,-23.388017)"
   role="link"
   onclick="getdoc('http://www.oracle.com/pls/topic/lookup?ctx=db19&amp;id=GUID-C27A7EED-9AB6-45E4-BBCD-8142CC438291');"
   id="a_Oracle_GoldenGate"
   class="clickable"
   tabindex="0"
   xlink:href=""><title
     id="title12-3">Oracle GoldenGate</title><g
     id="Oracle_GoldenGate"><path
   style="fill:#7a7a7a"
   id="path14-0"
   d="M 105.8,55.4 H 2 c -1.1,0 -2,-0.9 -2,-2 v -27 c 0,-1.1 0.9,-2 2,-2 h 103.8 c 1.1,0 2,0.9 2,2 v 27 c 0,1.1 -0.9,2 -2,2 z"
   class="st0" /><text
   style="font-size:8px;font-family:Helvetica;fill:#f2f2f2"
   id="text16-4"
   class="st1 st2 st3"
   transform="translate(19.4152,42.4633)">Oracle GoldenGate</text>





</g></a><a
   id="a_edition_based_redef"
   class="clickable"
   href=""
   role="link"
   tabindex="0"
   onclick="getdoc('http://www.oracle.com/pls/topic/lookup?ctx=db19&amp;id=GUID-58DE05A0-5DEF-4791-8FA8-F04D11964906');"
   transform="translate(54.000212,55.841806)"><g
     transform="translate(-7.5240903)"
     id="g3955"><path
   style="fill:#7a7a7a"
   id="path14-0-1-4"
   d="m 344.96332,-22.93349 h -103.8 c -1.1,0 -2,-0.9 -2,-2 v -27 c 0,-1.1 0.9,-2 2,-2 h 103.8 c 1.1,0 2,0.9 2,2 v 27 c 0,1.1 -0.9,2 -2,2 z"
   class="st0" /><text
   style="font-size:8px;font-family:Helvetica;fill:#f2f2f2"
   id="text16-4-3-2"
   class="st1 st2 st3"
   x="247.29237"
   y="-35.87019">Edition-Based Redefinition</text>





</g></a><a
   transform="translate(54.85662,72.400477)"
   xlink:href=""
   tabindex="0"
   class="clickable"
   id="a_Oracle_RAC-1"
   onclick="getdoc('http://www.oracle.com/pls/topic/lookup?ctx=db19&amp;id=GUID-D409B493-DBE3-4D1C-B235-74CF349C8688');"
   role="link"><title
     id="title12-3-7">Oracle RAC</title><g
     id="g933"><path
   class="st0"
   d="M 105.8,31 H 2 C 0.9,31 0,30.1 0,29 V 2 C 0,0.9 0.9,0 2,0 h 103.8 c 1.1,0 2,0.9 2,2 v 27 c 0,1.1 -0.9,2 -2,2 z"
   id="path14-40"
   style="fill:#d4d6d7" /><text
   y="18.398758"
   x="21.510599"
   class="st1 st2"
   id="text16-9"
   style="font-size:8px;font-family:Helvetica"><tspan
     y="18.398758"
     x="21.510599"
     id="tspan928">Oracle Clusterware</tspan></text>

</g></a><a
   transform="translate(52.228434,48.79985)"
   xlink:href=""
   tabindex="0"
   class="clickable"
   id="a_Oracle_Engineered_Systems"
   onclick="getdoc('http://www.oracle.com/pls/topic/lookup?ctx=db19&amp;id=GUID-54DFD834-D3B3-4B4E-9ED3-1B29FA492806');"
   role="link"><title
   id="title108">Oracle Engineered Systems</title><text
   y="144.20509"
   x="257.0293"
   id="text79"><tspan
     style="font-size:8px;font-family:Helvetica;fill:#ffffff"
     class="st1 st2 st3"
     y="144.20509"
     x="257.0293"
     id="tspan81" /></text>

<g
   id="g111"><path
   class="st0"
   d="m 339.80612,161.46122 h -103.2 c -1.1,0 -2,-0.9 -2,-2 v -27 c 0,-1.1 0.9,-2 2,-2 h 103.2 c 1.1,0 2,0.9 2,2 v 27 c 0,1.2 -0.9,2 -2,2 z"
   id="path110"
   style="fill:#663300" /><text
   id="text116"
   x="258.34561"
   y="142.88878"><tspan
     x="258.34561"
     y="142.88878"
     class="st1 st2 st3"
     id="tspan112"
     style="font-size:8px;font-family:Helvetica;fill:#ffffff">Zero Data Loss</tspan></text>

<text
   style="font-size:12px;stroke-width:1"
   id="text116-2"
   x="252.36638"
   y="151.70197"><tspan
     x="252.36638"
     y="151.70197"
     class="st1 st2 st3"
     id="tspan112-2"
     style="font-size:8px;font-family:Helvetica;fill:#ffffff;stroke-width:1">Recovery Appliance</tspan></text>

</g></a><a
   onclick="getdoc('http://www.oracle.com/pls/topic/lookup?ctx=db19&amp;id=GUID-AA9CF5C9-A1BB-4366-BA6D-7B6C8E3782E3');"
   href=""
   tabindex="0"
   role="link"
   class="clickable"
   id="a_fpp"><g
     transform="translate(-11.055924,25.041591)"
     id="g980"><path
   class="st0"
   d="m 347.81902,113.74791 h -103.8 c -1.1,0 -2,-0.9 -2,-2 V 84.747912 c 0,-1.1 0.9,-2 2,-2 h 103.8 c 1.1,0 2,0.9 2,2 v 26.999998 c 0,1.1 -0.9,2 -2,2 z"
   id="path14-40-6"
   style="fill:#d4d6d7" /><text
   y="95.269394"
   x="295.8819"
   class="st1 st2"
   id="text16-9-1"
   style="font-style:normal;font-variant:normal;font-weight:normal;font-stretch:normal;font-size:8px;font-family:Helvetica;-inkscape-font-specification:'Helvetica, Normal';font-variant-ligatures:normal;font-variant-caps:normal;font-variant-numeric:normal;font-feature-settings:normal;text-align:center;writing-mode:lr-tb;text-anchor:middle"><tspan
     id="tspan972"
     x="295.8819"
     y="95.269394">Fleet Patching and</tspan><tspan
     id="tspan974"
     x="295.8819"
     y="105.26939">Provisioning</tspan></text>

</g></a><a
   onclick="getdoc('https://www.oracle.com/a/tech/docs/exadata-maa-wp.pdf');"
   href=""
   tabindex="0"
   role="link"
   class="clickable"
   id="a_exadata"><g
     transform="translate(-12.690479,24.280873)"
     id="g1021"><path
   class="st0"
   d="m 461.54625,114.50863 h -103.8 c -1.1,0 -2,-0.9 -2,-2 v -27 c 0,-1.1 0.9,-2 2,-2 h 103.8 c 1.1,0 2,0.9 2,2 v 27 c 0,1.1 -0.9,2 -2,2 z"
   id="path14-40-6-1"
   style="fill:#d4d6d7" /><text
   y="96.030113"
   x="409.60913"
   class="st1 st2"
   id="text16-9-1-2"
   style="font-style:normal;font-variant:normal;font-weight:normal;font-stretch:normal;font-size:8px;font-family:Helvetica;-inkscape-font-specification:'Helvetica, Normal';font-variant-ligatures:normal;font-variant-caps:normal;font-variant-numeric:normal;font-feature-settings:normal;text-align:center;writing-mode:lr-tb;text-anchor:middle"><tspan
     y="96.030113"
     x="409.60913"
     id="tspan1013">Exadata or</tspan><tspan
     y="106.03011"
     x="409.60913"
     id="tspan1015">Exadata Cloud</tspan></text>

</g></a><a
   id="a_shard"
   role="link"
   class="clickable"
   tabindex="0"
   onclick="getdoc('http://www.oracle.com/pls/topic/lookup?ctx=db19&amp;id=GUID-53AD2226-EE1E-49C8-A916-718FBE682366');"><g
     id="g7611"><path
       class="st0"
       d="m 389.81774,104.78781 h -103.8 c -1.1,0 -2,-0.9 -2,-2 V 75.787807 c 0,-1.1 0.9,-2 2,-2 h 103.8 c 1.1,0 2,0.9 2,2 v 27.000003 c 0,1.1 -0.9,2 -2,2 z"
       id="path14-40-6-1-5"
       style="fill:#d4d6d7" /><text
       y="86.309288"
       x="340.27084"
       class="st1 st2"
       id="text16-9-1-2-6"
       style="font-style:normal;font-variant:normal;font-weight:normal;font-stretch:normal;font-size:8px;font-family:Helvetica;-inkscape-font-specification:'Helvetica, Normal';font-variant-ligatures:normal;font-variant-caps:normal;font-variant-numeric:normal;font-feature-settings:normal;text-align:center;writing-mode:lr-tb;text-anchor:middle"><tspan
         y="86.309288"
         x="340.27084"
         id="tspan1013-9">Oracle Sharding</tspan></text><text
       y="97.036858"
       x="339.78464"
       class="st1 st2"
       id="text16-9-1-2-6-1"
       style="font-style:normal;font-variant:normal;font-weight:normal;font-stretch:normal;font-size:8px;font-family:Helvetica;-inkscape-font-specification:'Helvetica, Normal';font-variant-ligatures:normal;font-variant-caps:normal;font-variant-numeric:normal;font-feature-settings:normal;text-align:center;writing-mode:lr-tb;text-anchor:middle"><tspan
         y="97.036858"
         x="339.78464"
         id="tspan1013-9-6">(Alternate)</tspan></text></g></a><a
   onclick="getdoc('http://www.oracle.com/pls/topic/lookup?ctx=db19&amp;id=GSMUG');"
   href=""
   tabindex="0"
   class="clickable"
   role="link"
   id="a_gds"><g
     transform="translate(-11.538848,27.457141)"
     id="g1039"><path
   style="fill:#e29417"
   id="path14-4-5"
   d="m 346.92007,40.598914 h -103.8 c -1.1,0 -2,-0.9 -2,-2 v -27 c 0,-1.1 0.9,-2 2,-2 h 103.8 c 1.1,0 2,0.9 2,2 v 27 c 0,1.1 -0.9,2 -2,2 z"
   class="st0" /><text
   style="font-size:12px;stroke-width:1"
   id="text108-1"
   x="257.36774"
   y="27.962194"><tspan
     style="font-size:8px;font-family:Helvetica;fill:#ffffff;stroke-width:1"
     id="tspan104-9"
     class="st1 st2 st3"
     y="27.962194"
     x="257.36774">Global Data Services</tspan></text>

</g></a><a
   id="a_siteguard"
   role="link"
   class="clickable"
   tabindex="0"
   onclick="getdoc('https://docs.oracle.com/iaas/disaster-recovery/index.html');"><g
     id="g6625"><path
       style="fill:#e29417"
       id="path14-4-5-3"
       d="m 448.85577,68.056055 h -103.8 c -1.1,0 -2,-0.9 -2,-2 v -27 c 0,-1.1 0.9,-2 2,-2 h 103.8 c 1.1,0 2,0.9 2,2 v 27 c 0,1.1 -0.9,2 -2,2 z"
       class="st0" /><text
       style="font-size:12px;stroke-width:1"
       id="text108-1-6"
       x="371.95871"
       y="49.145"><tspan
         style="font-size:8px;font-family:Helvetica;fill:#ffffff;stroke-width:1"
         id="tspan104-9-6"
         class="st1 st2 st3"
         y="49.145"
         x="371.95871">OCI Full Stack</tspan></text><text
       style="font-size:12px;stroke-width:1"
       id="text108-1-6-1"
       x="366.33438"
       y="60.48259"><tspan
         style="font-size:8px;font-family:Helvetica;fill:#ffffff;stroke-width:1"
         id="tspan104-9-6-0"
         class="st1 st2 st3"
         y="60.48259"
         x="366.33438">Disaster Recovery</tspan></text></g></a><a
   id="a_app_continuity"
   role="link"
   class="clickable"
   tabindex="0"
   onclick="getdoc('http://www.oracle.com/pls/topic/lookup?ctx=db19&amp;id=GUID-5EBF37EA-48AB-4508-A14E-86A2583A24BF');"
   transform="translate(-0.20470069,25.241427)"><g
     id="g1452"><path
       style="fill:#d4d6d7"
       id="path14-9"
       d="M 219.42029,114.50339 H 115.6203 c -1.1,0 -2,-0.9 -2,-2 V 85.503387 c 0,-1.1 0.9,-2 2,-2 h 103.79999 c 1.1,0 2,0.9 2,2 v 27.000003 c 0,1.1 -0.9,2 -2,2 z"
       class="st0" /><text
       style="font-size:8px;font-family:Helvetica"
       id="text16-8"
       class="st1 st2"
       x="115.0816"
       y="95.586815">Application Failover Practices</text><text
       style="font-size:8px;font-family:Helvetica"
       id="text16-8-6"
       class="st1 st2"
       x="125.51591"
       y="107.70248">or Application Continuity</text></g></a></svg>
